@startuml
allowmixing
left to right direction
skinparam DefaultFontName "Open Sans"
skinparam linetype polyline
skinparam rectangle {
    roundCorner<<Concept>> 25
}

title
| Title: | Databricks ML Model Deployment Diagram with Service Principal|
| As of  | %date("YYYY-MM-dd") |
| PlantUML Version | %version() |
end title

footer Notes: Workspace Admin operations will follow a different workflow

class audit_table {
    + account_id: string
    + workspace_id: string
    + version: string
    + event_time: timestamp
    + event_date: date
    + source_ip_address: string
    + user_agent: string
    + session_id: string
    + user_identity: struct
    + service_name: string
    + action_name: string
    + request_id: string
    + request_params: map
    + response: struct
    + audit_level: string
    + event_id: string
}

class request_params {
    notebookId: string
    clusterId: string
    executionTime: string
    status: string
    commandLanguage: string
    commandId: string
    commandText: string
}

class billing_usage {
    + account_id: string
    + workspace_id: string
    + record_id: string
    + sku_name: string
    + cloud: string
    + usage_start_time: timestamp
    + usage_end_time: timestamp
    + usage_date: date
    + custom_tags: map
    + usage_unit: string
    + usage_quantity: decimal
    + usage_metadata: struct
}

class clusters {
    + account_id: string
    + workspace_id: string
    + cluster_id: string
    + cluster_name: string
    + owned_by: string
    + create_time: timestamp
    + delete_time: timestamp
    + driver_node_type: string
    + worker_node_type: string
    + worker_count: long
    + min_autoscale_workers: long
    + max_autoscale_workers: long
    + auto_termination_minutes: long
    + enable_elastic_disk: boolean
    + tags: map
    + cluster_source: string
    + init_scripts: array
    + aws_attributes: struct
    + azure_attributes: struct
    + gcp_attributes: struct
}

class billing_usage_metadata {
    node_type: string
    job_id: string
    instance_pool_id: string
    cluster_id: string
    warehouse_id: string
}

class custom_tags #pink {
    business_unit: string ('SBS')
    primary_user: string ('george.gee@discouttire.com')
}

class users #pink {
    + account_id: string
    + user_identity: string
    + user_name: string
    + active: boolean
    + created_time: timestamp
    + last_login_time: timestamp
    + groups: array
    + instance_profile_arn: string
}

class project #pink {
    + business_unit
    + project_id
    + project_name
}
billing_usage_metadata <-- billing_usage::usage_metadata
audit_table::user_identity --> users::user_identity
users::user_identity -- custom_tags::primary_user
@enduml
' user session vs job or warehouse
' Chart for User Sessions
' Char for usage by Dev/Stage/Prod
' Chart for usage by Project/Jobs
' Chart for usage by User


